<?xml version="1.0" encoding="UTF-8"?> <svg xmlns="http://www.w3.org/2000/svg" id="katman_1" version="1.1" viewBox="0 0 210 60"><defs><style> .st0 { fill: #0060aa; } </style></defs><path class="st0" d="M66.4,21c0,.1.3.2.4.2.3,0,.5-.1.6-.3,0-.1,0-.2.2-.4,0-.1,0-.2.2-.3,0-.2.3-.4.4-.6,0-.1,0-.3.2-.5v-.6c0-.1-.2-.2-.4-.3,0,0-.2-.2-.3-.2h-.6s-.2,0-.2.1l-.2.2s0,.1,0,.2c0,.2-.2.4-.3.7,0,.2,0,.5-.2.7,0,.3,0,.7.2.9,0,0,0,.1.2.1h0Z"></path><path class="st0" d="M85,24.4c0-.3-.4-.4-.7-.5-.3-.1-.6-.2-.9-.2-.5,0-1,.1-1.5.3-.8.3-1.5.7-2.2,1.2,0,0-.2.2-.3.3,0,.1-.3.2-.4.3h0c0-.5,0-.8.2-1.2v-.7c0-.3,0-.6,0-.8,0-.1-.2-.2-.3-.3-.2,0-.3-.2-.5-.3-.2,0-.3-.2-.5-.2s-.3,0-.4.2v1.1c0,.4,0,.8-.2,1.2,0,.4-.2.8-.3,1.2,0,0-.2.1-.3.1-.3.2-.6.5-.9.7-.4.3-.9.7-1.3,1-.2.2-.5.4-.7.6s-.5.4-.8.5c-.4.3-.8.5-1.2.7s-.4.2-.6.3c0,0-.6.2-.6.3-1,.4-2,.8-3.1,1-.5,0-1.1.1-1.6,0-.4,0-.9-.2-1-.6-.2-.7,0-1.6.2-2.3.3-.7.6-1.4.9-2.1,0-.2.2-.4,0-.6,0-.2-.2-.4-.3-.5-.2-.3-.7-.7-1.1-.5-.3.1-.2.4-.3.7,0,.2-.2.4-.3.6,0,.3-.3.5-.4.8,0,.2-.3.2-.5.2h-.8c-.5,0-1.1.2-1.6.4-1.6.5-3.1,1.1-4.5,1.9,0,0-.2.1-.3.2-.5.3-1,.6-1.5.8v-.2c.3-1.7.5-3.5.6-5.3,0-.3,0-.5,0-.7-.2-.3-.5-.5-.9-.6h-.5c-.3,0-.6.4-.8.6-.3.3-.5.7-.8,1-.5.7-1.1,1.3-1.6,1.9s-1.1,1.2-1.7,1.7c-.2.2-.5.4-.8.6-.2.2-.4.3-.6.4-.2.1-.4.3-.6.3-.3,0-.2-.3-.2-.5s0-.4,0-.6c0-.3.2-.6.3-.9,0-.2,0-.4.2-.6l.6-1.4c.2-.5-.3-1-.7-1.1h-.4c-.3,0-.4.2-.6.5,0,.3-.2.6-.4.9,0,.1,0,.2,0,.3h0c-.2.2-.5.4-.7.5-.3.2-.7.4-1,.6-.7.4-1.3.7-2,1-1.2.6-2.4,1.1-3.6,1.6-.9.4-1.8.7-2.7.9-.5.1-.9.3-1.4.4-.5,0-1.1.1-1.7,0-.3,0-.6,0-.9-.2-.2-.1-.4-.3-.5-.5-.2-.2-.2-.5-.2-.8s0-.5.1-.8c0-.1.1-.4.3-.4s.3.1.4.2c.2.1.3.2.5.2s.3,0,.5-.1c.2,0,.5-.2.7-.3.2-.1.4-.3.6-.5.4-.3.8-.7,1.2-1,.4-.4.8-.8,1.2-1.3.6-.7,1-2.1,0-2.8-.6-.5-1.3-.3-1.9,0-.8.4-1.6.9-2.3,1.6-.4.3-.7.6-1,1-.2.2-.3.3-.4.5,0,0-.3.5-.4.5-2.4.4-4.8,1-7.2,1.5-.3,0-.6-.2-.9-.3-.3-.2-.7-.3-1-.4-1-.3-2-.5-3-.9,0,0-.2,0-.3-.1-.3-.1-.3-.2-.1-.4.4-.3.7-.5,1-.7.5-.3,1-.5,1.5-.7s1.1-.3,1.6-.5h.7c.2,0,.6.4.8.3.2,0,.2-.5.2-.6,0-.3,0-.5-.2-.8-.3-.6-.9-.7-1.5-.6-1.4.2-2.8.8-4,1.5-.8.5-1.8,1.2-1.6,2.2,0,.8.4,1.4,1.1,1.6.2.1.5.2.7.3l1,.3c.3,0,.6.2,1,.3.2,0,.3.1.5.2,0,0,.5.1.4.2h0c-1,.4-1.9.9-2.9,1.3-.9.4-1.8.9-2.5,1.5-.8.6-1.6,1.2-1.9,2.2-.2.5,0,1,.2,1.4s.7.6,1.1.7c1,.3,2.1,0,3.1-.4,1-.3,2-.8,2.8-1.3.7-.4,1.3-.9,1.9-1.4.5-.5,1-1,1.3-1.7.2-.6.2-1.1,0-1.6,0-.1-.2-.3-.2-.4,0-.2.3-.3.4-.4.6-.2,1.1-.3,1.7-.5,1.2-.3,2.4-.5,3.6-.9,0,0-.2.4-.2.5,0,.2-.2.4-.2.7-.1.5-.1,1,0,1.4.2.9.8,1.6,1.5,2.1,1.1.7,2.5.7,3.7.4,1.5-.3,2.9-.8,4.2-1.3.6-.2,1.2-.5,1.8-.8l1.8-.9c.6-.3,1.1-.7,1.6-.9.2-.1.5-.3.7-.4,0,.7,0,1.3.2,1.9.6,1,2.1.9,3,.5.3-.2.7-.4.9-.5.4-.3.8-.6,1.2-1s.8-.8,1.2-1.2c.4-.4.8-.9,1.2-1.3h0c0-.1,0-.2.2-.3,0,0,0-.1.2-.2h0q0-.1,0-.2h0v.8h0c0,.4,0,.8,0,1.1,0,.5,0,1-.2,1.5,0,.2,0,.5,0,.7,0,.2,0,.4,0,.6,0,0,0,.1-.2.2-.6.4-1.1.9-1.7,1.3-.7.5-1.4,1-2.1,1.5-.7.5-1.4,1.1-2.1,1.6-.9.8-1.8,1.6-2.7,2.5s-.9.9-1.3,1.4c-.4.5-.8,1-1.2,1.5-1.6,1.9-2.9,4.1-3.4,6.6-.2.8-.3,1.6-.2,2.4,0,.8,0,1.6.6,2.3.7,1,2.1,1.4,3.3,1.2s2.3-.9,3.3-1.7c1.9-1.6,3.3-3.6,4.5-5.7,1.4-2.4,2.4-5,3.2-7.7h0c.3-.8.5-1.7.7-2.5,0-.5.2-1,.3-1.5,0-.5.2-1,.3-1.5,0-.3,0-.6.3-.9.3-.4.8-.6,1.2-.8.5-.3.9-.5,1.4-.8l3-1.5.4-.2c.3-.1.6-.2.9-.3.3-.1.6-.2.9-.3l1.2-.3-.2.7c0,.4,0,.8,0,1.1,0,.4.2.8.3,1.2,0,.3.3.6.6.8.8.7,1.9,1.1,3,1.1s1.8-.2,2.6-.5c1.4-.5,2.8-1.1,4-2,1-.7,1.9-1.5,2.9-2.4,0,.3-.2.7-.2,1s-.2.7-.3,1c-.2.6-.5,1.1-.7,1.7v.3c0,.1,0,.2.2.3.2.2.4.3.7.4.2,0,.3,0,.5,0s.4,0,.4-.2v-.2c0-.5.3-.9.4-1.4.2-.7.6-1.3,1-1.9s.9-1.3,1.4-1.8c.4-.4.8-.7,1.2-1.1.5-.4,1-.9,1.6-1.2.4-.2.8-.4,1.3-.4h.7c.2,0,.4,0,.3-.2h0l.2.3ZM32.4,27.7h0c0-.2,0-.3.2-.4.3-.4.6-.8,1-1.1.5-.4,1-.7,1.7-1h.2c-.5.6-1,1.1-1.5,1.6s-1.1.9-1.7,1.2v-.2h.1ZM23.1,31v.2c0,.1,0,.3-.2.4-.1.2-.2.3-.4.5l-.5.5c-.3.3-.6.5-1,.8-.8.6-1.7,1.1-2.6,1.6-.6.3-1.2.5-1.8.6h-1c-.3,0-.7,0-.4-.4.9-1.2,2.1-1.9,3.4-2.7,1.2-.7,2.3-1.3,3.5-1.9.2,0,.6-.3.8-.2.2.1.2.4.2.6ZM52.4,33.7c0,.4-.2.8-.4,1.2-.3,1.1-.6,2.2-.9,3.3-.3,1.1-.7,2.1-1.1,3.2,0,.2-.2.4-.2.6-.8,2-1.9,4-3.1,5.9-.2.3-.4.5-.5.8-.4.5-.7,1-1.1,1.4l-1.1,1.1c-.8.8-1.7,1.4-2.8,1.7-.2,0-.4,0-.6,0-.5,0-.8-.6-1-1s-.2-.8-.3-1.2v-1.3c.2-1.7.9-3.4,1.8-4.9.4-.7.9-1.3,1.3-1.9.6-.9,1.3-1.7,2.1-2.5.5-.6,1.1-1.1,1.6-1.6.9-.9,1.9-1.8,2.9-2.6s2-1.6,3-2.4c0,0,.2-.2.3-.2s0,.2,0,.4h0Z"></path><path class="st0" d="M110,14.8c.4-.7.8-1.5,1.1-2.2.4-.9.7-1.8.9-2.7.2-.9.6-2.3,0-3.1-.3-.4-.8-.6-1.3-.7-.4,0-.7,0-1.1,0-.4.2-.6.4-.8.7-.2.4-.5.8-.8,1.2-1.3,2-2.2,4.3-3,6.6-.9,2.3-1.6,4.7-2.2,7.1,0,.2,0,.5-.2.7,0,.2-.2.6-.2.8,0,.6-.5,1.2-.8,1.8-.3.5-.7,1.1-1.1,1.6-.8,1-1.7,1.9-2.6,2.9-.3.3-.5.6-.8.9s-.6.6-1,.9c-.5.4-1.1.8-1.6,1.2-.2.2-.4.3-.7.4-.3,0-.6.3-1,.3s-.4-.2-.4-.5v-1c0-.7.3-1.3.5-1.9s.6-1.2.9-1.7c.4-.6.8-1.1,1.2-1.6.4-.4.7-.9,1.1-1.3,0-.1.3-.3.5-.3.4-.1.6.2.8.5,0,.3.2.5.3.8,0,.2,0,.5.3.7h.3c.2,0,.5,0,.7-.1,0,0,0,0,.2-.2v-.4c0-.2-.2-.5-.3-.7,0-.4-.3-.8-.6-1.1-.4-.4-1.1-.6-1.7-.6s-1.2.2-1.7.6c-.6.4-1,.9-1.5,1.5-.8,1.1-1.7,2.1-2.3,3.4,0,.2-.2.5-.3.7,0,.2,0,.3-.2.5-.2.6-.4,1.3-.4,1.9s.6,1.6,1.3,1.9c.4.2.9.2,1.4.2s1,0,1.5-.4c.5-.2,1-.6,1.4-1,.4-.3.8-.7,1.2-1,.4-.4.8-.8,1.2-1.2,1-.9,2-1.9,2.7-3,0-.1,0-.2.2-.3,0-.1.2-.2.2-.3h0c0,.3,0,.7-.2,1.1,0,.4-.2.8-.2,1.2-.4,2.5-1,5-.5,7.5,0,.5.2,1,.5,1.4s.6.8,1.1,1c.6.3,1.4.4,1.9,0,0,0,.2-.2,0-.3,0,0-.2,0-.4-.2-.4,0-.8-.4-1-.7-.3-.5-.4-1.1-.5-1.7,0-.7,0-1.3,0-2v-1c0-.4,0-.7,0-1.1s0-.9.2-1.4c0-1,.3-2,.5-2.9.2-1,.3-1.9.7-2.9h0c0-.2.2-.4.3-.6.3-.5.6-.9.9-1.3s.6-.9.9-1.3c.5-.6.9-1.3,1.3-1.9.6-1,1.1-2,1.7-3,.4-.6.7-1.3,1-1.9l.5-.6ZM107.6,15.9c0,.2-.2.4-.3.5,0,0,0,.2,0,.3-.2.4-.4.8-.6,1.2s-.2.4-.3.6c0,.2-.3.4-.4.6-.3.5-.6.9-.9,1.4,0,.2-.2.3-.3.5,0,.2-.2.3-.4.5h0s0-.7,0-.8c0-.3.2-.6.3-.9.2-.6.4-1.2.7-1.8.2-.4.3-.9.5-1.3.4-1,.8-2.1,1.3-3l1.5-3c.2-.5.5-.9.7-1.4,0-.2.3-.5.4-.7,0-.2.2-.4.4-.5h.2c.2.6,0,1.3-.2,1.9-.4,1.4-1,2.7-1.6,4-.3.6-.6,1.3-.9,1.9h0Z"></path><path class="st0" d="M133.1,21.6h-3.8c-.5,0-1,.2-1.5.3h-.7c0,0,0-.2,0-.3.2-.3.3-.6.4-.9.7-1.9,1.5-3.7,2.4-5.5.7-1.4,1.4-3,2.3-4.3.5-.7,1.1-1.4,1.9-1.9.2-.1.4-.2.6-.1,1,.3.7,1.8,1.4,2.4.6.6,1.4.2,1.4-.6s-.3-1.3-.6-1.8c-.6-.9-1.5-1.7-2.6-1.7s-2.2,1.1-2.9,2.1-1.3,2.1-1.9,3.2c-.5.9-.9,1.8-1.3,2.7-.9,1.8-1.7,3.7-2.4,5.6-.2.5-.4.9-.5,1.4,0,.1,0,.3-.2.4-.2.2-.4.2-.6.3-.9.2-1.7.4-2.6.7-.4.1-.9.2-1.3.3-.3,0-1,.1-1.1.4,0,.2,0,.5,0,.7s0,.5.2.6h.5c.5-.2.9-.2,1.4-.3.5,0,1-.2,1.4-.4.4-.1.9-.2,1.3-.2s.2.2,0,.3c0,.2,0,.4-.2.6,0,.3-.2.6-.2.9s0,.6-.3.8l-.2.2s-.2.1-.3.2c0,0-.3.2-.6.3-.5.2-1,.5-1.4.8-.5.3-1,.5-1.5.8-1.7.7-3.3,1.5-5,2.1-1.2.4-2.4.7-3.7.7s-.6,0-.9,0-.6-.3-.7-.6c-.2-.4-.2-.8-.2-1.2s0-.8.4-.9c.2,0,.4.2.5.3.2.1.5.1.7,0,.6-.1,1.2-.7,1.7-1.1s1-.9,1.5-1.4c.5-.6,1.1-1.2,1.3-2,0-.4,0-.9-.2-1.3-.2-.3-.6-.5-1-.6-.5,0-1,.2-1.5.5s-.9.5-1.3.9c-.8.6-1.6,1.4-2.2,2.3-.6.8-1.2,1.8-1.3,2.8,0,.5,0,.9,0,1.4.3.8.9,1.6,1.7,1.9,1,.5,2.2.5,3.4.3,1.5-.3,2.9-.8,4.4-1.3,1-.4,2.1-.9,3.1-1.4.5-.3,1-.5,1.5-.8s1-.6,1.5-.8v.3c0,.2,0,.3,0,.4,0,.4-.2.8-.3,1.2-.2,1.1-.5,2.1-.7,3.2-.2,1.2-.4,2.4-.5,3.6v1.7c0,.8,0,1.6.6,2.3,0,0,.2.2.3.3.2.2,1.3.4,1.3,0s0-.3,0-.4c-.6-1.3-.4-2.6-.3-4,0-1.5.5-3,.8-4.5.3-1.6.7-3.1,1.1-4.6.2-.7.4-1.3.6-2,.2-.5.3-1.1.5-1.6.2-.4.2-.9.6-1.2.2-.2.5-.3.7-.3.6-.1,1.1-.3,1.7-.3.9-.2,1.8-.3,2.6-.3h1.2c.1,0,.3,0,.4-.1,0,0,.1-.2.1-.3v-.5h0c0-.1-.9-.6-.9-.6ZM110.6,27.5c.3-.6.7-1.1,1.3-1.5.3-.2.5-.4.8-.5.3-.2.6-.3.9-.4h0s0,.2-.2.2c0,0-.2.2-.2.3-.2.2-.3.3-.5.5-.3.3-.7.7-1,1-.4.3-.8.6-1.3.9,0-.1,0-.2,0-.4h0Z"></path><path class="st0" d="M142.3,15.5c.5-.1,1-.3,1.5-.4.4,0,.8-.2,1.2-.2h.5c.7-.1,1.4-.2,2.1-.4h.7v-.5h0c0-.1-.1-.1-.2-.1h-3.6c-.8,0-1.5.3-2.3.5-.2,0-.5,0-.7.1-.2,0-.5.1-.7.2h-.2c.9-1.9,1.6-3.9,2.7-5.8,0-.2.2-.3.2-.5s0-.4-.2-.6c-.1-.2-.2-.4-.4-.5s-.5,0-.7,0h-.4c-.1,0-.2.2-.3.4,0,0-.1.3-.1.4l-.2.4c-.1.3-.2.6-.3.8-.2.6-.4,1.1-.7,1.7-.4,1.1-.9,2.2-1.3,3.4,0,.2-.2.5-.3.7,0,0,0,.2-.1.2,0,0-.2,0-.3.1-.2,0-.4.2-.6.2-.4.1-.9.2-1.3.4-.1,0-.2,0-.3,0-.4.1-.8.3-1.3.5h-.5c-.1.1-.2.1-.3.2-.2,0-.3,0-.5.1-.1,0-.3,0-.5.1-.1,0-.2.2-.2.3v.7c.1.1.3.2.4.2h.5c.6-.1,1.1-.3,1.6-.5.1,0,.2,0,.3-.1.1,0,.2,0,.3-.1.2,0,.5-.2.7-.2s.5-.2.7-.2.2,0,.3-.1c.2,0,.3-.1.3.2s-.2.6-.4.9c-.3.6-.5,1.2-.8,1.8-.8,1.9-1.5,3.9-1.9,6,0,.2-.1.5-.2.7-.3,1.6-.6,3.2-.7,4.9v2.5c0,1.4.2,3.5,2,3.8h.6c.2,0,.3-.2.3-.4s-.2-.4-.4-.5-.4-.2-.5-.3c-.3-.3-.4-.8-.4-1.2-.2-3.6.3-7.2,1.4-10.5.5-1.5,1-3,1.6-4.5.3-.7.6-1.5.8-2.2.1-.4.3-.7.4-1.1.2-.4.3-.5.7-.7.5-.2,1.1-.3,1.7-.5h.2v-.4Z"></path><path class="st0" d="M166.2,24.2c-.1-.1-.3-.2-.4-.2-.7-.3-1.4-.3-2.1-.2-1,.2-1.9.7-2.6,1.4-.2.2-.5.7-.8.6v-1c0-.4.1-.7.2-1.1h0v-.4c0-.1-.2-.2-.3-.3-.2-.1-.4-.2-.5-.4-.1,0-.3-.1-.4-.2s-.3,0-.4,0c-.1.1-.2.2-.2.4v.6c0,.3-.1.6-.2.9,0,.3,0,.5-.1.8,0,.2,0,.4-.1.6v.4c0,.2-.1.2-.3.3-.3.2-.6.3-.9.5-.6.3-1.1.7-1.7,1-1,.6-2.1,1.1-3.1,1.6-.3.1-.6.3-.9.4-.2,0-.3.1-.5.2l-.4.2c-1.8.7-3.6,1.5-5.5,1.5s-1.5,0-1.9-.7c-.3-.5-.2-1-.1-1.5,0-.2,0-.6.3-.6s.2.2.3.2.3.2.5.2c.3,0,.6,0,.8-.2,1.1-.6,2.1-1.6,3-2.5.4-.5.8-1,1-1.6s0-1.4-.5-1.7c-.4-.2-.8-.3-1.2-.2-.4,0-.8.3-1.2.5-1.8,1.1-3.4,2.7-4.3,4.7-.2.4-.3.8-.4,1.3-.1,1,.3,2,1,2.6.7.7,1.7,1,2.7,1s1.4,0,2.1-.3c1.3-.3,2.5-.7,3.7-1.2s2.5-1,3.6-1.6,2.2-1.3,3.3-2v.8c0,.3-.2.6-.2.9-.1.4-.3.8-.5,1.2,0,.2-.1.4-.2.5,0,.2-.2.3-.1.5,0,0,.1.2.2.2.3.3.6.4,1,.5h.5c.1,0,.2-.3.3-.4,0-.2.1-.5.2-.7,0-.2.1-.5.2-.7.1-.4.4-.8.6-1.2.5-.9,1.1-1.7,1.7-2.4.2-.2.4-.4.6-.6.6-.6,1.4-1.2,2.1-1.7.3-.2.7-.4,1-.5.4-.1.8,0,1.2,0h.3v-.2s0-.1-.1-.2h-.3ZM144.3,27.8v-.2h0c0-.2.1-.4.2-.5.2-.3.4-.5.6-.7,0,0,.1-.1.2-.2.5-.4,1.1-.8,1.7-1,0,0,.1,0,0,0,0,0,0,.1-.1.2,0,.1-.2.2-.3.3-.4.5-.9.9-1.4,1.4-.2.2-.5.4-.7.6-.1,0-.3.2-.4.2h-.1.3Z"></path><path class="st0" d="M171,21c.3.3.8.3,1.1,0,0-.1.1-.3.2-.4,0-.2.2-.4.3-.6s.2-.3.3-.5v-.7c0-.1-.2-.2-.3-.3-.1,0-.2-.2-.4-.3-.2-.2-.5-.3-.8-.1-.1,0-.2.2-.3.3-.2.3-.3.6-.4.9,0,.3-.2.7-.2,1.1s.2.5.3.7h.2Z"></path><path class="st0" d="M183.6,20.5c.3.2.7.1.9-.2v-.4c0-.2-.2-.3-.4-.4h-.2c-.3,0-.6,0-.7.2-.1.3,0,.6.4.8Z"></path><path class="st0" d="M191.7,19.5h-.1c-.2,0-.4,0-.5.2,0,.2,0,.4.3.6.3.1.5,0,.6-.1v-.3c0-.1-.1-.2-.3-.3h0Z"></path><path class="st0" d="M193.1,20.1h.4v-.2s-.1-.2-.2-.2h0c-.2,0-.3,0-.4.1v.2s.1.2.2.2h0Z"></path><path class="st0" d="M193.7,19.9v.2c0,.2-.3.3-.5.2h-.1c-.1,0-.2-.2-.3-.3v-.3s-.1.2-.2.3h-.4v.2c-.1.3-.4.4-.8.3h-.2c-.4-.2-.5-.6-.4-.9-.1,0-.2.2-.3.4v.2h-.3c2.6-3.8,1.9-5.4,1.7-5.5s-.6,0-.8,0h0c-.2,0-.3.1-.3.1-.3.2-1,.6-1.1.6-.2,0,.2-.3.5-.5-.2,0-.5.2-.8.3-.3.2-.6.4-.9.7-.7.7-1.8,2.5-2.9,4.3h-.7v.3c-.2.4-.6.5-1.1.4h-.2c-.5-.3-.7-.8-.5-1.2-.2.1-.3.3-.4.5h-.7c-.1.2-.4.3-.8.3h-.2c-.4-.2-.5-.6-.4-.9-.1,0-.2.2-.3.4v.2c-3.1-.2-5.9-.3-6.2.1-.4.7,4.6,2.8,9.6,3.2-.6,1-1.3,1.7-1.7,2.1-.7.7-1.5,1.4-2.3,1.7-.2,0-.8-1-1-.9-.3,0,0,1.1-.4,1.1-1,0-1.8,0-1.9.1,0,.2.5.4,1.1.7.2,0,.7.2,1.2.3-.7.4-1.4.8-2.1,1.2h-.2c-1.4.8-3,1.5-4.6,1.7h-1.5c-.2,0-.5,0-.7-.2-.3-.2-.5-.5-.5-.9s0-.7.1-1c.3-.9.6-1.8,1.1-2.6.1-.2.3-.5.3-.7,0-.5-.5-.8-.9-1.1-.1,0-.3-.1-.4-.1-.2,0-.3.3-.4.5-.4,1-.9,2-1.2,3s-.2,2.2.4,3.1c.5.9,1.5,1.4,2.5,1.5.8,0,1.7,0,2.5-.2s1.5-.4,2.3-.8c.6-.3,1.2-.6,1.7-.9,1.1-.7,2-1.6,3-2.5h.3c2.2-.2,3.6-1,3.7-1.2.1-.2-.7-.1-1.9,0,1.4-1,3.4-2.5,5.2-4.2,4.9-.7,8.2-2.6,8.6-3.2.2-.3-.9-.3-2.5-.2h.2Z"></path><path class="st0" d="M181,20.1c.2.1.5,0,.6-.1,0-.2,0-.4-.3-.6h-.1c-.2,0-.4,0-.5.2,0,.2,0,.4.3.6h0Z"></path><path class="st0" d="M178.7,28.5c-.7.4-1.4.8-2.1,1.2h-.2c-1.4.8-3,1.5-4.6,1.7h-1.5c-.2,0-.5,0-.7-.2-.3-.2-.5-.5-.5-.9s0-.7.1-1c.3-.9.6-1.8,1.1-2.6.1-.2.3-.5.3-.7,0-.5-.5-.8-.9-1.1-.1,0-.3-.1-.4-.1-.2,0-.3.3-.4.5-.4,1-.9,2-1.2,3s-.2,2.2.4,3.1c.5.9,1.5,1.4,2.5,1.5.8,0,1.7,0,2.5-.2s1.5-.4,2.3-.8c.6-.3,1.2-.6,1.7-.9,1.1-.7,2-1.6,3-2.5"></path></svg> 